<?xml version="1.0" encoding="UTF-8"?>
<svg id="Layer_1" data-name="Layer 1" xmlns="http://www.w3.org/2000/svg" viewBox="0 0 1507.12 254.01">
  <path d="M930.61,153.79c0-29.5,23.91-53.41,53.41-53.41h136.99c9.45,0,23.52-7.66,23.68-22.1.16-14.56-12.72-19.29-22.11-19.29h-191.96V5.91h204.72c27.22,0,68.62-3.42,68.58,72.06-.03,46.82-23.38,69.82-53.49,69.82-.53,0-4.35.12-4.35.12l57.52,99.6-58.91-.48-46.98-81.32c-6.4-11.08-18.22-17.9-31.01-17.9h-52.86c-13.69-.01-24.8,11.07-24.82,24.77l-.1,74.13-58.3.06v-92.98Z"/>
  <path d="M301.74,154.81c0-30.11,24.41-54.52,54.52-54.52h135.88c10.02,0,23.59-7.07,23.69-21.74.1-14.95-10.69-19.49-21.83-19.54l-191.25-.11c-.55,0-1-.45-1-1V7.05c0-.55.45-1,1-1l220.61-.23c32.86,0,51.65,23.23,51.65,73.02s-27.93,68.66-53.91,68.64l-135.89.02c-13.63,0-24.7,11.02-24.77,24.65l-.37,73.47c0,.55-.45,1-1,1l-56.3.06c-.55,0-1-.45-1-1v-90.87Z"/>
  <path d="M788.58,246.68l-25.03-8.89c-26.93-9.56-56.34-9.48-83.21.24l-23.93,8.65h-108.56S680.81,17.69,680.81,17.69c4.2-7.28,11.97-11.77,20.37-11.77h42.25c8.4,0,16.17,4.48,20.37,11.76l132.16,229.02-107.38-.02ZM729.77,66.35c-4.64,0-10.17,0-14.82,0-6.13,0-11.79,3.3-14.85,8.65l-40.81,71.27c-3.84,6.71-3.84,14.98,0,21.69l2.68,4.68c4.75,8.3,14.35,12.44,23.6,10.24,24.27-5.77,49.54-5.74,73.8.07,9.09,2.18,18.51-1.9,23.18-10.06l3.4-5.93c3.49-6.09,3.49-13.6,0-19.69-10.23-17.87-31.71-55.38-41.4-72.31-3.06-5.34-8.68-8.61-14.79-8.61Z"/>
  <path d="M.27,194.74h198.82c24.93.01,24.82-47.22.31-47.26l-138.58.15C40.94,147.64-.63,135,0,80.87.63,28.28,44.74,5.82,65.46,5.82h207.8v53.08s-192.43.07-192.43.07c-23.87-.15-25.81,39.83-1.26,40.35,12.68.27,97.36,1.11,136.08,1.11,31.07,0,57.61,23.64,57.61,70.75,0,48.55-37.35,75.48-58.08,75.48H0"/>
  <polyline points="1476.18 242.45 1484 254.01 1425.7 254.01 1421.67 246.82"/>
  <path d="M1365.05,246.82l-70.73-.09c-29.15,0-62.33-16.52-62.32-41.82l.03-151.12c0-25.36,22.97-47.63,63.8-47.63l145.28-.04c41.52,0,66.02,23.68,66.02,45.81v152.7c.03,27.94-27.23,42.64-62.03,42.18h-23.86s-31.92-54.62-31.92-54.62l36.2-.1c11.2-.13,20.21-9.25,20.22-20.45l.02-93.42c0-10.31-9.53-19.1-22.21-19.1l-107.77-.05c-13.85,0-24.52,8.53-24.52,20l.17,96.18c0,9.59,9.31,19.13,22.15,19.63h19.11"/>
</svg>